# xmcd
#
# Track frame offsets: 
#        150
#        14185
#        36065
#        52077
#        70660
#        83105
#        106220
#        121850
#        137467
#        153395
#        173515
#        185357
#        205317
#        222870
#
# Disc length: 3131 seconds
#
# Revision: 2
# Processed by: cddbd v1.5.2PL0 Copyright (c) Steve Scherf et al.
# Submitted via: ExactAudioCopyFreeDBPlugin 1.0
#
DISCID=bb0c390e
DTITLE=Fathead - Fathead
DYEAR=1995
DGENRE=Blues
TTITLE0=Hard Driving Music
TTITLE1=Hear My Baby Call
TTITLE2=Snake In The Grass
TTITLE3=The Sweetest Sound
TTITLE4=One Step Forward
TTITLE5=Georgia Swing
TTITLE6=Cajun Cafe
TTITLE7=She's Trouble
TTITLE8=What Do You Take Me For
TTITLE9=Forecast Calls For Pain
TTITLE10=I Want To Do Everything For You
TTITLE11=The Train Kept Rolling
TTITLE12=Hear The Lions Roar
TTITLE13=Try It One More Time
EXTD=
EXTT0=
EXTT1=
EXTT2=
EXTT3=
EXTT4=
EXTT5=
EXTT6=
EXTT7=
EXTT8=
EXTT9=
EXTT10=
EXTT11=
EXTT12=
EXTT13=
PLAYORDER=
